<svg width="36" height="36" viewBox="0 0 36 36" fill="none" xmlns="http://www.w3.org/2000/svg">
<path d="M13.7772 33.226H28.6002C31.185 33.226 33.2802 31.1308 33.2802 28.546V13.723C33.2802 11.1382 31.185 9.04297 28.6002 9.04297H13.7772C11.1924 9.04297 9.0972 11.1382 9.0972 13.723V28.546C9.0972 31.1308 11.1924 33.226 13.7772 33.226Z" fill="#0EAD98" fill-opacity="0.35"/>
<path d="M7.27921 26.7283H22.1022C24.687 26.7283 26.7822 24.6331 26.7822 22.0483V7.22346C26.7822 4.63866 24.687 2.54346 22.1022 2.54346H7.27921C4.69441 2.54346 2.59921 4.63866 2.59921 7.22346V22.0465C2.59921 24.6331 4.69621 26.7283 7.27921 26.7283Z" fill="#0EAD98" fill-opacity="0.35"/>
<path d="M14.0166 9.04297H26.7822V21.8086C26.7822 24.5248 24.5808 26.728 21.8628 26.728H9.099V13.9606C9.099 11.2444 11.3004 9.04297 14.0166 9.04297Z" fill="#0EAD98"/>
<path d="M26.4672 19.9872H16.1532C15.3576 19.9872 14.7132 19.3428 14.7132 18.5472C14.7132 17.7516 15.3576 17.1072 16.1532 17.1072H23.2596L22.4226 16.1658C22.2968 16.0246 22.2001 15.86 22.138 15.6813C22.076 15.5026 22.0498 15.3135 22.061 15.1247C22.0722 14.9359 22.1206 14.7512 22.2033 14.5811C22.2861 14.411 22.4016 14.259 22.5432 14.1336C22.6844 14.0078 22.8491 13.9111 23.0277 13.8491C23.2064 13.787 23.3955 13.7609 23.5843 13.7721C23.7731 13.7833 23.9578 13.8316 24.1279 13.9144C24.298 13.9971 24.45 14.1126 24.5754 14.2542L27.5436 17.5932C27.9198 18.0162 28.0134 18.6228 27.7812 19.1394C27.549 19.656 27.0342 19.9872 26.4672 19.9872ZM19.1214 28.5102C18.7236 28.5102 18.3294 28.3464 18.045 28.026L15.0768 24.687C14.8925 24.4796 14.772 24.2233 14.7298 23.949C14.6877 23.6747 14.7256 23.3941 14.8392 23.1408C14.9531 22.8877 15.1378 22.6729 15.3709 22.5222C15.6039 22.3715 15.8756 22.2913 16.1532 22.2912H26.4654C27.261 22.2912 27.9054 22.9356 27.9054 23.7312C27.9054 24.5268 27.261 25.1712 26.4654 25.1712H19.359L20.196 26.1126C20.3218 26.2538 20.4185 26.4185 20.4805 26.5972C20.5426 26.7758 20.5688 26.965 20.5576 27.1538C20.5464 27.3426 20.498 27.5273 20.4153 27.6974C20.3325 27.8674 20.217 28.0195 20.0754 28.1448C19.8136 28.3806 19.4737 28.5108 19.1214 28.5102Z" fill="#F7F8F8"/>
</svg>